<?xml version="1.0" encoding="UTF-8"?>
<svg id="Layer_1" data-name="Layer 1" xmlns="http://www.w3.org/2000/svg" xmlns:xlink="http://www.w3.org/1999/xlink" viewBox="0 0 230.63 298.31">
  <defs>
    <style>
      .cls-1 {
        clip-path: url(#clippath);
      }

      .cls-2 {
        fill: none;
      }

      .cls-2, .cls-3, .cls-4 {
        stroke-width: 0px;
      }

      .cls-4 {
        fill: #fff;
      }
    </style>
    <clipPath id="clippath">
      <rect class="cls-2" width="230.63" height="298.31"/>
    </clipPath>
  </defs>
  <rect class="cls-3" width="230.63" height="298.31"/>
  <g class="cls-1">
    <rect class="cls-4" x="38.3" y="0" width=".22" height="299.12"/>
    <rect class="cls-4" x="76.82" y="0" width=".22" height="299.12"/>
    <rect class="cls-4" x="115.34" y="0" width=".22" height="299.12"/>
    <rect class="cls-4" x="153.86" y="0" width=".22" height="299.12"/>
    <rect class="cls-4" x="192.38" y="0" width=".22" height="299.12"/>
    <g>
      <polygon class="cls-4" points="115.46 124.61 76.93 101.72 76.93 101.98 115.46 124.87 115.46 124.61"/>
      <polygon class="cls-4" points="115.46 129.72 76.93 106.82 76.93 107.08 115.46 129.97 115.46 129.72"/>
      <polygon class="cls-4" points="115.46 134.81 76.93 111.92 76.93 112.18 115.46 135.07 115.46 134.81"/>
      <polygon class="cls-4" points="115.46 139.91 76.93 117.02 76.93 117.28 115.46 140.17 115.46 139.91"/>
      <polygon class="cls-4" points="115.46 145.01 76.93 122.12 76.93 122.38 115.46 145.27 115.46 145.01"/>
      <polygon class="cls-4" points="115.46 150.11 76.93 127.22 76.93 127.48 115.46 150.37 115.46 150.11"/>
      <polygon class="cls-4" points="115.46 155.22 76.93 132.32 76.93 132.58 115.46 155.47 115.46 155.22"/>
      <polygon class="cls-4" points="76.93 137.42 76.93 137.68 115.46 160.57 115.46 160.31 76.93 137.42"/>
      <polygon class="cls-4" points="153.97 100.95 115.46 78.07 115.46 78.32 153.97 101.2 153.97 100.95"/>
      <polygon class="cls-4" points="153.97 106.05 115.46 83.17 115.46 83.42 153.97 106.3 153.97 106.05"/>
      <polygon class="cls-4" points="153.97 111.15 115.46 88.27 115.46 88.52 153.97 111.4 153.97 111.15"/>
      <polygon class="cls-4" points="153.97 116.25 115.46 93.37 115.46 93.62 153.97 116.5 153.97 116.25"/>
      <polygon class="cls-4" points="153.97 121.35 115.46 98.47 115.46 98.72 153.97 121.6 153.97 121.35"/>
      <polygon class="cls-4" points="153.97 126.45 115.46 103.57 115.46 103.82 153.97 126.7 153.97 126.45"/>
      <polygon class="cls-4" points="153.97 131.55 115.46 108.67 115.46 108.92 153.97 131.8 153.97 131.55"/>
      <polygon class="cls-4" points="153.97 136.65 115.46 113.77 115.46 114.02 153.97 136.9 153.97 136.65"/>
      <polygon class="cls-4" points="153.97 59.38 115.46 36.49 115.46 36.75 153.97 59.63 153.97 59.38"/>
      <polygon class="cls-4" points="153.97 64.48 115.46 41.6 115.46 41.85 153.97 64.73 153.97 64.48"/>
      <polygon class="cls-4" points="153.97 69.58 115.46 46.7 115.46 46.95 153.97 69.83 153.97 69.58"/>
      <polygon class="cls-4" points="153.97 74.67 115.46 51.8 115.46 52.05 153.97 74.93 153.97 74.67"/>
      <polygon class="cls-4" points="153.97 79.77 115.46 56.89 115.46 57.15 153.97 80.03 153.97 79.77"/>
      <polygon class="cls-4" points="153.97 84.88 115.46 61.99 115.46 62.25 153.97 85.13 153.97 84.88"/>
      <polygon class="cls-4" points="153.97 89.98 115.46 67.1 115.46 67.35 153.97 90.23 153.97 89.98"/>
      <polygon class="cls-4" points="153.97 95.08 115.46 72.2 115.46 72.45 153.97 95.33 153.97 95.08"/>
      <polygon class="cls-4" points="115.46 171.5 153.97 194.38 153.97 194.13 115.46 171.24 115.46 171.5"/>
      <polygon class="cls-4" points="115.46 176.6 153.97 199.48 153.97 199.23 115.46 176.35 115.46 176.6"/>
      <polygon class="cls-4" points="115.46 181.7 153.97 204.58 153.97 204.33 115.46 181.45 115.46 181.7"/>
      <polygon class="cls-4" points="115.46 186.8 153.97 209.68 153.97 209.43 115.46 186.55 115.46 186.8"/>
      <polygon class="cls-4" points="115.46 191.9 153.97 214.78 153.97 214.53 115.46 191.65 115.46 191.9"/>
      <polygon class="cls-4" points="115.46 197 153.97 219.88 153.97 219.63 115.46 196.74 115.46 197"/>
      <polygon class="cls-4" points="115.46 202.1 153.97 224.98 153.97 224.73 115.46 201.85 115.46 202.1"/>
      <polygon class="cls-4" points="115.46 207.2 153.97 230.08 153.97 229.83 115.46 206.95 115.46 207.2"/>
      <polygon class="cls-4" points="231.65 148.22 231.76 148.04 192.49 124.7 192.49 124.96 231.65 148.22"/>
      <polygon class="cls-4" points="231.65 153.32 231.76 153.14 192.49 129.8 192.49 130.06 231.65 153.32"/>
      <polygon class="cls-4" points="231.65 158.42 231.76 158.24 192.49 134.9 192.49 135.16 231.65 158.42"/>
      <polygon class="cls-4" points="231.65 163.52 231.76 163.34 192.49 140 192.49 140.26 231.65 163.52"/>
      <polygon class="cls-4" points="231.65 168.62 231.76 168.44 192.49 145.1 192.49 145.36 231.65 168.62"/>
      <polygon class="cls-4" points="231.65 173.72 231.76 173.54 192.49 150.2 192.49 150.46 231.65 173.72"/>
      <polygon class="cls-4" points="231.65 178.82 231.76 178.64 192.49 155.3 192.49 155.56 231.65 178.82"/>
      <polygon class="cls-4" points="231.65 183.92 231.76 183.74 192.49 160.4 192.49 160.66 231.65 183.92"/>
      <polygon class="cls-4" points="231.76 106.46 192.49 83.13 192.49 83.38 231.65 106.65 231.76 106.46"/>
      <polygon class="cls-4" points="231.76 111.56 192.49 88.23 192.49 88.48 231.65 111.75 231.76 111.56"/>
      <polygon class="cls-4" points="231.65 116.85 231.76 116.66 192.49 93.33 192.49 93.58 231.65 116.85"/>
      <polygon class="cls-4" points="231.65 121.95 231.76 121.76 192.49 98.43 192.49 98.68 231.65 121.95"/>
      <polygon class="cls-4" points="231.65 127.05 231.76 126.86 192.49 103.53 192.49 103.78 231.65 127.05"/>
      <polygon class="cls-4" points="231.65 132.15 231.76 131.96 192.49 108.63 192.49 108.88 231.65 132.15"/>
      <polygon class="cls-4" points="231.65 137.25 231.76 137.06 192.49 113.73 192.49 113.98 231.65 137.25"/>
      <polygon class="cls-4" points="231.65 142.35 231.76 142.16 192.49 118.83 192.49 119.08 231.65 142.35"/>
      <polygon class="cls-4" points="153.97 147.37 192.49 170.26 192.49 170 153.97 147.12 153.97 147.37"/>
      <polygon class="cls-4" points="153.97 152.47 192.49 175.36 192.49 175.1 153.97 152.22 153.97 152.47"/>
      <polygon class="cls-4" points="153.97 157.57 192.49 180.46 192.49 180.2 153.97 157.32 153.97 157.57"/>
      <polygon class="cls-4" points="153.97 162.67 192.49 185.56 192.49 185.3 153.97 162.42 153.97 162.67"/>
      <polygon class="cls-4" points="153.97 167.77 192.49 190.66 192.49 190.4 153.97 167.52 153.97 167.77"/>
      <polygon class="cls-4" points="153.97 172.87 192.49 195.76 192.49 195.5 153.97 172.62 153.97 172.87"/>
      <polygon class="cls-4" points="153.97 177.97 192.49 200.86 192.49 200.6 153.97 177.72 153.97 177.97"/>
      <polygon class="cls-4" points="153.97 183.07 192.49 205.96 192.49 205.7 153.97 182.82 153.97 183.07"/>
      <polygon class="cls-4" points="38.41 78.42 -1.05 54.97 -1.16 55.16 38.41 78.67 38.41 78.42"/>
      <polygon class="cls-4" points="38.41 83.52 -1.05 60.07 -1.16 60.26 38.41 83.77 38.41 83.52"/>
      <polygon class="cls-4" points="38.41 88.62 -1.05 65.17 -1.16 65.36 38.41 88.87 38.41 88.62"/>
      <polygon class="cls-4" points="38.41 93.72 -1.05 70.27 -1.16 70.46 38.41 93.97 38.41 93.72"/>
      <polygon class="cls-4" points="38.41 98.82 -1.05 75.37 -1.16 75.56 38.41 99.07 38.41 98.82"/>
      <polygon class="cls-4" points="38.41 103.92 -1.05 80.47 -1.16 80.66 38.41 104.17 38.41 103.92"/>
      <polygon class="cls-4" points="38.41 109.02 -1.05 85.57 -1.16 85.76 38.41 109.27 38.41 109.02"/>
      <polygon class="cls-4" points="38.41 114.12 -1.05 90.67 -1.16 90.86 38.41 114.37 38.41 114.12"/>
      <polygon class="cls-4" points="38.41 32.21 38.41 32.46 76.93 55.35 76.93 55.09 38.41 32.21"/>
      <polygon class="cls-4" points="38.41 37.31 38.41 37.56 76.93 60.45 76.93 60.19 38.41 37.31"/>
      <polygon class="cls-4" points="38.41 42.41 38.41 42.66 76.93 65.55 76.93 65.29 38.41 42.41"/>
      <polygon class="cls-4" points="38.41 47.51 38.41 47.76 76.93 70.65 76.93 70.39 38.41 47.51"/>
      <polygon class="cls-4" points="38.41 52.61 38.41 52.86 76.93 75.75 76.93 75.49 38.41 52.61"/>
      <polygon class="cls-4" points="38.41 57.71 38.41 57.96 76.93 80.85 76.93 80.59 38.41 57.71"/>
      <polygon class="cls-4" points="38.41 62.81 38.41 63.06 76.93 85.95 76.93 85.69 38.41 62.81"/>
      <polygon class="cls-4" points="38.41 67.91 38.41 68.16 76.93 91.05 76.93 90.79 38.41 67.91"/>
      <polygon class="cls-4" points="38.41 125.55 76.93 148.44 76.93 148.18 38.41 125.3 38.41 125.55"/>
      <polygon class="cls-4" points="38.41 130.65 76.93 153.54 76.93 153.28 38.41 130.4 38.41 130.65"/>
      <polygon class="cls-4" points="38.41 135.75 76.93 158.64 76.93 158.38 38.41 135.5 38.41 135.75"/>
      <polygon class="cls-4" points="38.41 140.85 76.93 163.74 76.93 163.48 38.41 140.6 38.41 140.85"/>
      <polygon class="cls-4" points="38.41 145.95 76.93 168.84 76.93 168.58 38.41 145.7 38.41 145.95"/>
      <polygon class="cls-4" points="38.41 151.05 76.93 173.94 76.93 173.68 38.41 150.8 38.41 151.05"/>
      <polygon class="cls-4" points="38.41 156.15 76.93 179.04 76.93 178.78 38.41 155.9 38.41 156.15"/>
      <polygon class="cls-4" points="38.41 161.25 76.93 184.14 76.93 183.88 38.41 161 38.41 161.25"/>
      <polygon class="cls-4" points="38.41 166.58 76.93 189.47 76.93 189.21 38.41 166.33 38.41 166.58"/>
      <polygon class="cls-4" points="38.41 171.68 76.93 194.57 76.93 194.31 38.41 171.43 38.41 171.68"/>
      <polygon class="cls-4" points="38.41 176.78 76.93 199.67 76.93 199.41 38.41 176.53 38.41 176.78"/>
      <polygon class="cls-4" points="38.41 181.88 76.93 204.77 76.93 204.51 38.41 181.63 38.41 181.88"/>
      <polygon class="cls-4" points="38.41 186.98 76.93 209.87 76.93 209.61 38.41 186.73 38.41 186.98"/>
      <polygon class="cls-4" points="38.41 192.08 76.93 214.97 76.93 214.71 38.41 191.83 38.41 192.08"/>
      <polygon class="cls-4" points="38.41 197.18 76.93 220.07 76.93 219.81 38.41 196.93 38.41 197.18"/>
      <polygon class="cls-4" points="38.41 202.28 76.93 225.17 76.93 224.91 38.41 202.03 38.41 202.28"/>
    </g>
    <path class="cls-4" d="m.47,51.21h0l-2.71-1.61c0,.09,0,.17,0,.26L.05,51.21l232.44,138.06.11-.19L.47,51.21Z"/>
    <path class="cls-4" d="m.47,96.61h0l-2.71-1.61c0,.09,0,.17,0,.26l2.28,1.36,232.44,138.57.11-.19L.47,96.61Z"/>
  </g>
</svg>