<svg viewBox="0 0 226.61 43.17" xmlns="http://www.w3.org/2000/svg"><g fill="#fff"><path d="m79.6 34.28a9 9 0 0 0 -.23-2.56.77.77 0 0 0 -.62-.26h-.31a.23.23 0 0 1 0-.3h1.41s.85 0 1.3 0a.22.22 0 0 1 0 .3h-.3a.72.72 0 0 0 -.62.3 11.16 11.16 0 0 0 -.17 2.53v1.4a4.31 4.31 0 0 1 -.87 3 3.27 3.27 0 0 1 -2.37.91 3.53 3.53 0 0 1 -2.32-.68 3.54 3.54 0 0 1 -1-2.92v-3c0-1.29 0-1.5-.74-1.56h-.31a.23.23 0 0 1 0-.3h1.54s.92 0 1.52 0a.23.23 0 0 1 0 .3h-.3c-.72.06-.74.27-.74 1.56v2.7c0 2 .62 3.31 2.52 3.31s2.48-1.41 2.48-3.29v-1.44z"/><path d="m95.79 37.25v2.17a.22.22 0 0 1 -.23.14c-.15-.21-.51-.64-1.59-1.87l-2.87-3.27c-.31-.42-1.1-1.42-1.41-1.69a3.18 3.18 0 0 0 -.06.8v2.7a9.69 9.69 0 0 0 .23 2.57.81.81 0 0 0 .63.23h.38a.22.22 0 0 1 0 .31c-.56 0-1 0-1.45 0s-.85 0-1.29 0a.23.23 0 0 1 0-.31h.33a.66.66 0 0 0 .55-.25 11.93 11.93 0 0 0 .16-2.55v-3.57a1.14 1.14 0 0 0 -.27-.89 1.36 1.36 0 0 0 -.77-.3h-.21a.22.22 0 0 1 0-.31h1.4a3.91 3.91 0 0 0 .57 0 17.09 17.09 0 0 0 2.11 2.7l1.2 1.35c.86 1 1.46 1.65 2 2.24a1.22 1.22 0 0 0 .05-.52v-2.65a8.76 8.76 0 0 0 -.25-2.56 1.1 1.1 0 0 0 -.77-.25h-.21a.21.21 0 0 1 0-.31h1.46s.85 0 1.27 0a.22.22 0 0 1 0 .31h-.17a1.07 1.07 0 0 0 -.69.26 10 10 0 0 0 -.19 2.55v3z"/><path d="m105 33.06c0-1.31 0-1.53-.76-1.59h-.31a.24.24 0 0 1 0-.31h1.56s.92 0 1.54 0a.25.25 0 0 1 0 .31h-.31c-.73.06-.76.27-.76 1.59v4.41c0 1.31 0 1.49.76 1.57h.31a.24.24 0 0 1 0 .31c-.62 0-1 0-1.54 0s-.94 0-1.56 0a.24.24 0 0 1 0-.31h.31c.76-.04.76-.26.76-1.57z"/><path d="m115.06 32.49a1.19 1.19 0 0 0 -1-1h-.22a.21.21 0 0 1 0-.31h1.29s1 0 1.5 0a.22.22 0 0 1 0 .31h-.19c-.47.06-.57.13-.58.23a15.34 15.34 0 0 0 .62 1.74c.57 1.44 1.14 2.86 1.76 4.28.38-.82.9-2.09 1.19-2.75.36-.84.94-2.24 1.15-2.78a1.3 1.3 0 0 0 .11-.48c0-.09-.12-.19-.56-.23h-.22a.22.22 0 0 1 0-.31h1.29s.79 0 1.2 0a.25.25 0 0 1 0 .31h-.37a.79.79 0 0 0 -.65.43 30.25 30.25 0 0 0 -1.39 2.85l-.67 1.52c-.5 1.14-1.08 2.58-1.29 3.24a.26.26 0 0 1 -.13 0 .54.54 0 0 1 -.19 0 14.48 14.48 0 0 0 -.57-1.65z"/><path d="m130 33c0-1.29 0-1.48-.76-1.56h-.2a.25.25 0 0 1 0-.31h1.46 2.33a16.64 16.64 0 0 0 1.67 0 14.18 14.18 0 0 1 .2 1.65.25.25 0 0 1 -.31 0 1.34 1.34 0 0 0 -.94-1.18 5.88 5.88 0 0 0 -1.2-.07h-.89c-.37 0-.37 0-.37.5v2.48c0 .35 0 .35.41.35h.72a4.55 4.55 0 0 0 1.05-.08.44.44 0 0 0 .3-.43l.1-.51a.24.24 0 0 1 .32 0c0 .3-.05.78-.05 1.25s.05.92.05 1.19a.24.24 0 0 1 -.32 0l-.11-.48a.53.53 0 0 0 -.38-.47 4.08 4.08 0 0 0 -1-.06h-.68c-.37 0-.41 0-.41.34v1.75a2 2 0 0 0 .23 1.29 2 2 0 0 0 1.5.29 3.62 3.62 0 0 0 1.59-.19 3.08 3.08 0 0 0 .88-1.2.23.23 0 0 1 .31.09 10.57 10.57 0 0 1 -.56 1.72c-1.11 0-2.22 0-3.32 0h-1.12c-.53 0-1 0-1.69 0a.24.24 0 0 1 0-.31h.41c.71-.06.77-.25.77-1.55v-4.5z"/><path d="m143.4 33c0-1.18 0-1.39-.54-1.45h-.4a.21.21 0 0 1 0-.31c.69-.06 1.55-.1 2.76-.1a4.38 4.38 0 0 1 2.07.37 1.85 1.85 0 0 1 1 1.74 2.29 2.29 0 0 1 -1.55 2.07.29.29 0 0 0 .06.3 13.29 13.29 0 0 0 2.49 3.29 1.48 1.48 0 0 0 .86.35.1.1 0 0 1 0 .17 2 2 0 0 1 -.54.06c-1.06 0-1.69-.31-2.56-1.56-.32-.46-.83-1.31-1.22-1.87a.88.88 0 0 0 -.88-.4c-.56 0-.58 0-.58.27v1.56c0 1.3 0 1.45.74 1.55h.26a.24.24 0 0 1 0 .31c-.56 0-1 0-1.47 0s-1 0-1.55 0a.24.24 0 0 1 0-.31h.31c.72-.09.74-.25.74-1.55zm1 1.77a1 1 0 0 0 0 .41 2.29 2.29 0 0 0 .85.06 2.07 2.07 0 0 0 1.28-.32 1.78 1.78 0 0 0 .62-1.54 1.83 1.83 0 0 0 -2-1.91c-.77 0-.8 0-.8.4v2.9z"/><path d="m158.38 39.55a3.87 3.87 0 0 1 -1.93-.46 5.76 5.76 0 0 1 -.33-1.73.22.22 0 0 1 .3 0 2.25 2.25 0 0 0 2.13 1.85 1.41 1.41 0 0 0 1.55-1.42 1.86 1.86 0 0 0 -1-1.73l-1.18-.77a2.64 2.64 0 0 1 -1.34-2.13 2.23 2.23 0 0 1 2.51-2.16 4.86 4.86 0 0 1 1.15.16 1.59 1.59 0 0 0 .43.07 5.45 5.45 0 0 1 .22 1.51.24.24 0 0 1 -.31 0 1.62 1.62 0 0 0 -1.69-1.4 1.3 1.3 0 0 0 -1.47 1.38 1.94 1.94 0 0 0 1.05 1.52l1 .62a2.79 2.79 0 0 1 1.53 2.4 2.34 2.34 0 0 1 -2.64 2.29"/><path d="m169.45 33.06c0-1.31 0-1.53-.76-1.59h-.31a.24.24 0 0 1 0-.31h1.56s.92 0 1.54 0a.24.24 0 0 1 0 .31h-.31c-.73.06-.75.27-.75 1.59v4.41c0 1.31 0 1.49.75 1.57h.31a.24.24 0 0 1 0 .31c-.62 0-1 0-1.54 0s-.94 0-1.56 0a.24.24 0 0 1 0-.31h.31c.73-.09.76-.26.76-1.57z"/><path d="m183.21 37.49c0 1.3 0 1.49.74 1.55h.4a.25.25 0 0 1 0 .31c-.71 0-1.13 0-1.62 0s-.93 0-1.72 0a.22.22 0 0 1 0-.31h.45c.71-.06.77-.25.77-1.55v-5.49c0-.38 0-.4-.37-.4h-.68a2.54 2.54 0 0 0 -1.52.31 2.27 2.27 0 0 0 -.56.86.24.24 0 0 1 -.32-.09 12.92 12.92 0 0 0 .47-1.85.32.32 0 0 1 .24 0c.08.4.49.38 1.06.38h5c.67 0 .78 0 1-.35a.23.23 0 0 1 .22 0 7.44 7.44 0 0 0 -.19 1.88.23.23 0 0 1 -.32 0 1.59 1.59 0 0 0 -.31-.9 2.47 2.47 0 0 0 -1.44-.31h-.88c-.37 0-.36 0-.36.42v5.52z"/><path d="m197.33 37.47c0 1.32.07 1.52.74 1.57h.47a.24.24 0 0 1 0 .31c-.77 0-1.19 0-1.69 0s-1 0-1.62 0a.24.24 0 0 1 0-.31h.39c.72-.07.74-.25.74-1.57v-.63a2.5 2.5 0 0 0 -.39-1.54l-1.46-2.85c-.42-.82-.61-.88-1-.94l-.35-.06a.23.23 0 0 1 0-.31h1.44s1 0 1.33 0a.21.21 0 0 1 0 .31h-.16c-.43.06-.52.12-.52.22a6.18 6.18 0 0 0 .38 1c.46.92.92 1.89 1.4 2.75.38-.66.79-1.38 1.16-2.1a11.21 11.21 0 0 0 .8-1.64.67.67 0 0 0 -.52-.2h-.22a.21.21 0 0 1 0-.31h1.19s.73 0 1.15 0a.21.21 0 0 1 0 .31l-.35.06c-.64.11-1 .89-1.64 2l-.78 1.35a2.85 2.85 0 0 0 -.58 2v.64z"/><path d="m31.37 4.43c0-.06-2-1-2-1a19.38 19.38 0 0 0 -9.28.74 19.37 19.37 0 0 0 -9.28-.74s-1.92 1-2 1l-2.9 6.57a.2.2 0 0 0 .22.31 78.71 78.71 0 0 1 14-1.12 78.7 78.7 0 0 1 14 1.13.2.2 0 0 0 .22-.32zm-11.95 4.73c-3.23-.16-8.8-.16-11.59.84l2-5 1.35-.72-1.45 4.16a18.87 18.87 0 0 1 9.7.41v.31zm1.36 0v-.31a18.86 18.86 0 0 1 9.7-.41l-1.48-4.1 1.4.73 2 5c-2.65-1-8.22-1-11.6-.87"/><path d="m38.6 2h-.13a87.83 87.83 0 0 0 -36.67 0h-.08-.05a2.24 2.24 0 0 0 -1.67 2.15v3.26c0 23.59 14.57 33.11 19 35.47a2.32 2.32 0 0 0 1.09.29 2.26 2.26 0 0 0 1.09-.29c4.45-2.36 19-11.92 19-35.46v-3.27a2.26 2.26 0 0 0 -1.58-2.15m-19.29 39.53c-4.93-2.72-14.82-10.43-17.37-26.23h.12a87.62 87.62 0 0 1 17.25-1.87zm15.57-15.15a36.07 36.07 0 0 1 -3.48 5.77 35.19 35.19 0 0 1 -3.48 4v-6.3l-3.48-2.32v11.72a29.54 29.54 0 0 1 -3.48 2.28v-16.32l3.48 2.32v-8.1l3.48 2.32v-8c1.16.1 2.33.22 3.48.37v9.94l3.48 2.32v-11.73c1.12.19 2.22.35 3.32.62h.12a40 40 0 0 1 -3.44 11.08m-13.93-9.24v-3.7c1.16 0 2.32 0 3.48.1v5.92zm18-9.69a50.31 50.31 0 0 1 -.36 6.08 89.75 89.75 0 0 0 -36.89 0 50.22 50.22 0 0 1 -.36-6.09v-3.26a1 1 0 0 1 .66-.92 86.51 86.51 0 0 1 36.12 0 .94.94 0 0 1 .75.92v3.26z"/><path d="m31.4 24.06-3.49-2.32v8.11l3.49 2.32z"/><path d="m11.86 29.17a6.37 6.37 0 1 0 -6.38-6.37 6.38 6.38 0 0 0 6.37 6.37m1.15-.93a8.42 8.42 0 0 0 1.52-2.31 10.93 10.93 0 0 1 1.57.46 5.56 5.56 0 0 1 -3.09 1.85m3.57-2.53a11.23 11.23 0 0 0 -1.77-.55 7.78 7.78 0 0 0 .35-2h2.23a5.54 5.54 0 0 1 -.82 2.52m0-5.84a5.54 5.54 0 0 1 .82 2.52h-2.2a7.79 7.79 0 0 0 -.35-2 11.34 11.34 0 0 0 1.77-.55m-.48-.67a11 11 0 0 1 -1.57.46 8.42 8.42 0 0 0 -1.55-2.25 5.57 5.57 0 0 1 3.09 1.86m-3.85-1.48a7.86 7.86 0 0 1 1.46 2.09 12.78 12.78 0 0 1 -1.46.12v-2.22zm0 3a13.86 13.86 0 0 0 1.76-.15 7 7 0 0 1 .35 1.82h-2.09v-1.66zm0 2.46h2.11a6.9 6.9 0 0 1 -.35 1.81 13.48 13.48 0 0 0 -1.76-.16v-1.64zm0 2.46a13.35 13.35 0 0 1 1.45.12 7.8 7.8 0 0 1 -1.45 2.08v-2.19zm-4.65.73a11.08 11.08 0 0 1 1.57-.46 8.4 8.4 0 0 0 1.52 2.32 5.56 5.56 0 0 1 -3.1-1.86m3.85 1.47a8 8 0 0 1 -1.43-2.07 13.61 13.61 0 0 1 1.45-.12v2.2zm0-3a13.77 13.77 0 0 0 -1.73.15 6.78 6.78 0 0 1 -.35-1.82h2.11v1.66zm0-2.46h-2.08a6.8 6.8 0 0 1 .35-1.82 13.67 13.67 0 0 0 1.75.16v1.66zm0-2.46a12.91 12.91 0 0 1 -1.43-.12 7.94 7.94 0 0 1 1.45-2.08v2.2zm-.73-2.58a8.4 8.4 0 0 0 -1.52 2.32 11.08 11.08 0 0 1 -1.57-.46 5.57 5.57 0 0 1 3.1-1.86m-3.59 2.53a11.38 11.38 0 0 0 1.77.55 7.73 7.73 0 0 0 -.36 2h-2.22a5.51 5.51 0 0 1 .82-2.52m-.82 3.29h2.23a7.81 7.81 0 0 0 .35 2 11.3 11.3 0 0 0 -1.77.55 5.5 5.5 0 0 1 -.82-2.52"/><path d="m51.76 8.93c0-3.16-.28-3.5-2-3.64l-.71-.06a.56.56 0 0 1 .06-.71c1.68.06 2.65.08 3.89.08s2.11 0 3.24-.09a.56.56 0 0 1 .06.71l-.43.06c-1.68.23-1.73.63-1.73 3.64v10.56a15.85 15.85 0 0 1 -.7 5.52 6.18 6.18 0 0 1 -5.61 4.1c-.34 0-1.22 0-1.22-.6a1.34 1.34 0 0 1 1-1.31 3.46 3.46 0 0 1 1.05.17 4.4 4.4 0 0 0 1.19.2 1.21 1.21 0 0 0 1.15-.74c.65-1.34.74-5.6.74-7.14v-10.75z"/><path d="m56.19 15.63a8.3 8.3 0 0 1 8.54-8.47 7.9 7.9 0 0 1 8.33 8.23 8.19 8.19 0 0 1 -8.33 8.38c-5.33 0-8.54-3.82-8.54-8.14m14.47.5c0-4-1.75-8.23-6.33-8.23-2.5 0-5.74 1.71-5.74 7 .01 3.51 1.73 8.1 6.41 8.1 2.88 0 5.62-2.16 5.62-6.89"/><path d="m78.52 15.63c-1.15 0-1.2 0-1.2.77v3.38c0 2.52.12 2.86 1.46 3l.69.07a.47.47 0 0 1 0 .6c-1.3 0-2.11-.07-3-.07s-1.85 0-2.78.07a.47.47 0 0 1 0-.6l.31-.07c1.34-.24 1.39-.48 1.39-3v-8.64c0-2.52-.17-2.93-1.42-3h-.62a.47.47 0 0 1 0-.6c1.18 0 2 .07 3 .07s1.75 0 2.78-.07a.47.47 0 0 1 0 .6h-.46c-1.39.14-1.44.5-1.44 3v2.76c0 .74 0 .77 1.2.77h6.86c1.15 0 1.2 0 1.2-.77v-2.76c0-2.52 0-2.88-1.46-3h-.46a.47.47 0 0 1 0-.6c1.1 0 1.92.07 2.9.07s1.75 0 2.83-.07a.48.48 0 0 1 0 .6l-.3-.02c-1.39.14-1.44.5-1.44 3v8.64c0 2.52 0 2.83 1.44 3l.58.07a.47.47 0 0 1 0 .6c-1.15 0-2-.07-2.9-.07s-1.85 0-2.9.07a.46.46 0 0 1 0-.6l.46-.07c1.46-.24 1.46-.48 1.46-3v-3.36c0-.72 0-.77-1.2-.77z"/><path d="m107 19.3c0 .72 0 3.58.07 4.2a.43.43 0 0 1 -.46.26c-.29-.41-1-1.25-3.07-3.62l-5.6-6.34c-.65-.74-2.28-2.71-2.78-3.24a6 6 0 0 0 -.16 1.56v5.23c0 1.13 0 4.25.43 5a1.58 1.58 0 0 0 1.23.46l.74.07a.44.44 0 0 1 0 .6c-1.08 0-1.92-.07-2.81-.07s-1.66 0-2.5.07a.45.45 0 0 1 0-.6l.65-.07a1.3 1.3 0 0 0 1.06-.48 23.36 23.36 0 0 0 .2-4.97v-6.94a2.2 2.2 0 0 0 -.53-1.73 2.61 2.61 0 0 0 -1.47-.57h-.41a.42.42 0 0 1 0-.6c1 .07 2.28.07 2.71.07a7.57 7.57 0 0 0 1.1-.07c.48 1.23 3.31 4.39 4.1 5.28l2.33 2.61c1.65 1.85 2.83 3.19 4 4.34a2.41 2.41 0 0 0 .1-1v-5.19c0-1.13 0-4.25-.48-5a2.16 2.16 0 0 0 -1.45-.44h-.41a.4.4 0 0 1 0-.6c1.1 0 1.92.07 2.83.07s1.65 0 2.47-.07a.42.42 0 0 1 0 .6h-.34a2.12 2.12 0 0 0 -1.34.5c-.41.86-.36 3.84-.36 4.94v5.74z"/><path d="m113.3 23.76a7.47 7.47 0 0 1 -3.74-.89 11 11 0 0 1 -.65-3.36.42.42 0 0 1 .58-.07c.36 1.22 1.34 3.58 4.13 3.58a2.73 2.73 0 0 0 3-2.76 3.6 3.6 0 0 0 -2-3.36l-2.28-1.49a5.12 5.12 0 0 1 -2.59-4.13c0-2.28 1.78-4.13 4.9-4.13a9.34 9.34 0 0 1 2.23.31 3.13 3.13 0 0 0 .84.14 10.45 10.45 0 0 1 .43 2.93.48.48 0 0 1 -.6.07 3.14 3.14 0 0 0 -3.26-2.71c-2.35 0-2.86 1.56-2.86 2.67a3.78 3.78 0 0 0 2 3l1.92 1.2a5.41 5.41 0 0 1 3 4.61c0 2.64-2 4.44-5.11 4.44"/><path d="m132.66 14.19c-1.37 0-1.42.06-1.42.91v4c0 3 .14 3.39 1.73 3.56l.83.09a.55.55 0 0 1 -.06.71c-1.54-.06-2.5-.08-3.61-.08s-2.19.06-3.3.08a.55.55 0 0 1 -.06-.71l.48-.09c1.59-.29 1.65-.57 1.65-3.56v-10.23c0-3-.2-3.47-1.68-3.58l-.74-.06a.56.56 0 0 1 .06-.71c1.39 0 2.36.08 3.59.08s2.08 0 3.3-.08a.56.56 0 0 1 .06.71l-.54.06c-1.65.17-1.7.6-1.7 3.58v3.27c0 .88.06.91 1.42.91h8.14c1.37 0 1.42 0 1.42-.91v-3.27c0-3-.06-3.41-1.74-3.58l-.54-.06a.56.56 0 0 1 .05-.71c1.31.06 2.28.08 3.44.08s2.08 0 3.36-.08a.56.56 0 0 1 .06.71l-.6.06c-1.65.17-1.71.6-1.71 3.58v10.24c0 3 .06 3.36 1.71 3.56l.68.09a.55.55 0 0 1 -.06.71c-1.36-.06-2.33-.08-3.44-.08s-2.19 0-3.44.08a.55.55 0 0 1 -.06-.71l.54-.09c1.74-.29 1.74-.57 1.74-3.56v-4c0-.85-.06-.91-1.42-.91h-8.14z"/><path d="m146.76 15.63a8.3 8.3 0 0 1 8.54-8.47 7.9 7.9 0 0 1 8.33 8.23 8.19 8.19 0 0 1 -8.33 8.38c-5.33 0-8.54-3.82-8.54-8.14m14.47.5c0-4-1.75-8.23-6.34-8.23-2.49 0-5.73 1.71-5.73 7 0 3.55 1.73 8.16 6.46 8.16 2.88 0 5.62-2.16 5.62-6.89"/><path d="m168 19.78c0 2.52 0 2.83 1.58 3l.65.07a.47.47 0 0 1 0 .6c-1.37 0-2.16-.07-3.12-.07s-1.87 0-2.93.07a.47.47 0 0 1 0-.6l.5-.07c1.39-.19 1.44-.48 1.44-3v-8.85c0-2 0-2.45-1.13-2.57l-.99-.1a.4.4 0 0 1 0-.6 37.6 37.6 0 0 1 4.75-.19 8.67 8.67 0 0 1 4.61 1 4.15 4.15 0 0 1 1.92 3.6 4.07 4.07 0 0 1 -2.4 3.82 8.11 8.11 0 0 1 -3.31.72.3.3 0 0 1 0-.48c2.59-.48 3.53-1.95 3.53-4a3.54 3.54 0 0 0 -3.86-3.84c-1.27 0-1.3.09-1.3.86v10.7z"/><path d="m178 11.14c0-2.52 0-2.9-1.44-3h-.6a.48.48 0 0 1 0-.6c1.18 0 1.94.07 3 .07s1.75 0 2.79-.07a.47.47 0 0 1 0 .6h-.45c-1.39.14-1.44.5-1.44 3v2.76c0 .45 0 .91.31.91a1.36 1.36 0 0 0 .67-.26c.34-.29 1-.91 1.22-1.15l2.59-2.57a27.3 27.3 0 0 0 1.87-2 .71.71 0 0 0 .17-.39c0-.1-.1-.17-.41-.24l-.65-.14a.4.4 0 0 1 0-.6c.84 0 1.8.07 2.64.07s1.66 0 2.38-.07a.44.44 0 0 1 0 .6 5.92 5.92 0 0 0 -2.23.67 23.88 23.88 0 0 0 -3.36 2.78l-2.16 2a1.51 1.51 0 0 0 -.55.74 1.53 1.53 0 0 0 .46.74c2.28 2.61 4.13 4.78 6 6.74a2.78 2.78 0 0 0 1.83 1l.46.07a.42.42 0 0 1 0 .6c-.62 0-1.28-.07-2.41-.07s-1.82 0-2.93.07a.44.44 0 0 1 -.1-.6l.55-.1a.63.63 0 0 0 .58-.24 1.3 1.3 0 0 0 -.34-.55c-.46-.58-1.08-1.22-2-2.26l-1.92-2.16c-1.37-1.54-1.75-2-2.33-2-.36 0-.41.31-.41 1.15v3.1c0 2.52 0 2.85 1.39 3l.82.11a.47.47 0 0 1 0 .6c-1.18 0-2-.07-2.93-.07s-1.8 0-2.78.07a.46.46 0 0 1 0-.6l.48-.07c1.27-.19 1.32-.48 1.32-3v-8.64z"/><path d="m194.43 11.19c0-2.54 0-3-1.46-3.07h-.6a.47.47 0 0 1 0-.6c1.2 0 2 .07 3 .07s1.78 0 3-.07a.47.47 0 0 1 0 .6h-.6c-1.42.12-1.46.53-1.46 3.07v8.54c0 2.55 0 2.88 1.46 3l.6.07a.47.47 0 0 1 0 .6c-1.2 0-2-.07-3-.07s-1.73 0-2.93.07a.47.47 0 0 1 0-.6l.51-.07c1.42-.17 1.46-.5 1.46-3v-8.54z"/><path d="m215.19 19.3c0 .72 0 3.58.07 4.2a.43.43 0 0 1 -.46.26c-.29-.41-1-1.25-3.07-3.62l-5.57-6.34c-.65-.74-2.28-2.71-2.78-3.24a6 6 0 0 0 -.12 1.56v5.23c0 1.13 0 4.25.43 5a1.57 1.57 0 0 0 1.22.46l.74.07a.44.44 0 0 1 0 .6c-1.08 0-1.92-.07-2.81-.07s-1.66 0-2.5.07a.44.44 0 0 1 0-.6l.65-.07a1.29 1.29 0 0 0 1.06-.48 23.17 23.17 0 0 0 .31-4.94v-6.97a2.2 2.2 0 0 0 -.53-1.73 2.61 2.61 0 0 0 -1.49-.58h-.41a.42.42 0 0 1 0-.6c1 .07 2.28.07 2.71.07a7.58 7.58 0 0 0 1.11-.07c.48 1.23 3.31 4.39 4.1 5.28l2.33 2.61c1.66 1.85 2.83 3.19 4 4.34a2.43 2.43 0 0 0 .1-1v-5.18c0-1.13 0-4.25-.48-5a2.16 2.16 0 0 0 -1.49-.48h-.41a.4.4 0 0 1 0-.6c1.1 0 1.92.07 2.83.07s1.66 0 2.47-.07a.42.42 0 0 1 0 .6h-.34a2.11 2.11 0 0 0 -1.34.5c-.41.86-.36 3.84-.36 4.94v5.78z"/><path d="m221.5 23.76a7.49 7.49 0 0 1 -3.75-.89 11.14 11.14 0 0 1 -.65-3.36.42.42 0 0 1 .58-.07c.32 1.23 1.32 3.56 4.13 3.56a2.73 2.73 0 0 0 3-2.76 3.61 3.61 0 0 0 -2-3.36l-2.28-1.49a5.12 5.12 0 0 1 -2.53-4.11c0-2.28 1.78-4.13 4.9-4.13a9.34 9.34 0 0 1 2.23.31 3.14 3.14 0 0 0 .84.14 10.45 10.45 0 0 1 .43 2.93.48.48 0 0 1 -.6.07 3.14 3.14 0 0 0 -3.26-2.71c-2.35 0-2.86 1.56-2.86 2.67a3.78 3.78 0 0 0 2 3l1.92 1.2a5.41 5.41 0 0 1 3 4.61c0 2.64-2 4.44-5.11 4.44"/></g></svg>